<?xml version="1.0" standalone="no"?><!DOCTYPE svg PUBLIC "-//W3C//DTD SVG 1.1//EN" "http://www.w3.org/Graphics/SVG/1.1/DTD/svg11.dtd"><svg t="1564636916330" class="icon" viewBox="0 0 1024 1024" version="1.1" xmlns="http://www.w3.org/2000/svg" p-id="6754" xmlns:xlink="http://www.w3.org/1999/xlink" width="200" height="200"><defs><style type="text/css"></style></defs><path d="M1022.1 555.3c8-94.5-10.3-189.2-53-273.9-42.7-84.7-108-155.7-188.7-205.4C699.5 26.3 606.7 0 511.8 0 406.2 0.1 304.6 32.2 218.1 92.9S66.9 238.1 30.9 337.4c-36 99.3-40.5 205.7-13 307.7s84.9 191.8 165.9 259.5c92 76.9 208.6 119.3 328.6 119.3 90.1 0 178.9-23.9 256.8-69.1l2.7-1.6 173.4 49.3c0.1 0 0.2 0.1 0.4 0.1 0.3 0 0.6-0.1 0.9-0.4 0.3-0.3 0.5-0.8 0.4-1.2l-39.8-163.5c3-3.7 12-15.1 16.6-21.3 56.2-76.2 90.3-166.4 98.3-260.9zM883.5 757.8c-11.6 17.5-24.6 34.3-38.6 50-0.1 0.2-0.2 0.4-0.1 0.6l33.8 117.7-133-33.6h-0.2c-0.1 0-0.2 0-0.3 0.1l-3.2 1.9c-69.1 41.7-148.4 63.7-229.1 63.7H511c-204.4 0-382.3-138.4-432.5-336.6C28.2 423 118.9 216.5 299.2 119.2c64.9-35 138.1-53.5 211.7-53.5 125 0 245 52.8 329.4 145 138.2 151.1 156 376.1 43.2 547.1z" p-id="6755"></path><path d="M735.5 446.8c-36 0-65.2 29.3-65.2 65.2 0.2 35.7 29.5 64.8 65.2 64.8s65-29.1 65.2-64.8c0-36-29.2-65.2-65.2-65.2zM544.4 455.5c-9.9-5.7-21.2-8.7-32.6-8.7-11.4 0-22.7 3-32.6 8.7-20.1 11.6-32.6 33.2-32.6 56.5 0 23.2 12.5 44.9 32.6 56.5 9.9 5.7 21.2 8.7 32.6 8.7 11.4 0 22.7-3 32.6-8.7 20.1-11.6 32.6-33.2 32.6-56.5 0-23.2-12.5-44.9-32.6-56.5zM288.1 446.8c-11.4 0-22.7 3-32.6 8.7-20.1 11.6-32.6 33.2-32.6 56.5 0 29.5 19.9 55.4 48.3 63 5.5 1.5 11.2 2.2 16.9 2.2 23.2 0 44.8-12.5 56.5-32.6 14.7-25.5 10.5-57.9-10.4-78.7-12.3-12.3-28.7-19.1-46.1-19.1z" p-id="6756"></path></svg>