<?xml version="1.0" standalone="no"?><!DOCTYPE svg PUBLIC "-//W3C//DTD SVG 1.1//EN" "http://www.w3.org/Graphics/SVG/1.1/DTD/svg11.dtd"><svg t="1564570173119" class="icon" viewBox="0 0 3688 1024" version="1.1" xmlns="http://www.w3.org/2000/svg" p-id="2233" xmlns:xlink="http://www.w3.org/1999/xlink" width="720.3125" height="200"><defs><style type="text/css"></style></defs><path d="M3320.39604 261.914191h-388.646865c-204.462046 0-368.369637 165.59736-368.369637 370.059406v18.587459c0 204.462046 163.907591 370.059406 368.369637 370.059406h388.646865c204.462046 0 368.369637-165.59736 368.369637-370.059406v-18.587459c0-204.462046-165.59736-370.059406-368.369637-370.059406z m223.049505 388.646865c0 123.353135-99.69637 224.739274-223.049505 224.739274h-388.646865c-123.353135-1.689769-223.049505-101.386139-223.049505-224.739274v-18.587459c0-123.353135 99.69637-224.739274 223.049505-226.429043h388.646865c123.353135 1.689769 223.049505 101.386139 223.049505 226.429043v18.587459zM557.623762 1024h1.689769c76.039604 0 136.871287-33.79538 192.633664-113.214521l351.471947-515.379538c23.656766-35.485149 15.207921-82.79868-20.277228-108.145215-35.485149-23.656766-82.79868-15.207921-106.455445 18.587459L625.214521 822.917492c-21.966997 32.105611-45.623762 45.623762-67.590759 45.623762-27.036304 0-45.623762-15.207921-67.590759-45.623762L140.250825 307.537954C116.594059 272.052805 69.280528 263.60396 33.79538 287.260726-1.689769 310.917492-10.138614 359.920792 13.518152 395.405941l351.471947 515.379538c47.313531 70.970297 118.283828 113.214521 192.633663 113.214521zM2566.759076 351.471947c0-25.346535-11.828383-49.0033-32.105611-64.211221-35.485149-23.656766-82.79868-15.207921-106.455445 18.587459l-351.471947 515.379538c-21.966997 32.105611-45.623762 45.623762-67.590759 45.623762-27.036304 0-45.623762-15.207921-67.59076-45.623762L1590.072607 307.537954c-23.656766-35.485149-70.970297-43.933993-106.455445-20.277228-35.485149 23.656766-43.933993 72.660066-20.277228 108.145215l349.782178 515.379538c49.0033 70.970297 119.973597 113.214521 194.323433 113.214521h1.689769c76.039604 0 136.871287-33.79538 192.633663-113.214521l351.471947-515.379538c10.138614-13.518152 13.518152-28.726073 13.518152-43.933994zM1262.257426 216.290429c5.069307 5.069307 13.518152 8.448845 21.966996 8.448845s16.89769-3.379538 21.966997-8.448845L1387.30033 135.181518c11.828383-11.828383 11.828383-32.105611 0-43.933993L1306.191419 10.138614C1299.432343 3.379538 1292.673267 0 1284.224422 0h-1.689769c-8.448845 0-15.207921 3.379538-21.966996 8.448845l-81.108911 81.108911c-11.828383 11.828383-11.828383 32.105611 0 43.933993l82.79868 82.79868zM1360.264026 947.960396V349.782178c0-42.244224-33.79538-76.039604-76.039604-76.039604s-77.729373 33.79538-77.729372 76.039604v598.178218c1.689769 42.244224 38.864686 76.039604 81.10891 74.349835 40.554455-3.379538 72.660066-33.79538 72.660066-74.349835z" p-id="2234"></path></svg>